<?xml version="1.0" encoding="UTF-8"?>
<svg width="400" height="400" version="1.1" xmlns="http://www.w3.org/2000/svg" viewBox="58 39 300 300">
 <g transform="translate(0, 40)">
  <path d="m100.41 39.352h199.18v61.329h-7.0406q-1.1092-15.193-10.006-22.049-8.8932-7.0409-27.978-7.0409h-110.24q-35.389 0-36.872 29.09h-7.0406zm34.092 84.675h7.0412q0 17.046 8.1522 22.049 8.1528 5.0027 26.125 5.0027h48.36q18.343 0 26.31-5.0027 7.9678-5.0025 7.9678-22.049h6.8551v83.193h-6.8551q0-14.823-6.8557-20.937-6.6701-6.2997-27.422-6.2997h-48.36q-21.493 0-27.978 6.4851-6.2997 6.4849-6.2997 20.752h-7.0412zm-41.874 95.978h6.8556v4.4473q0 14.082 4.6328 21.308 4.8147 7.2261 12.229 9.6348 7.4117 2.2236 23.717 2.2236h121.92q20.196 0 29.275-6.8556 9.0787-6.8556 9.0787-26.31v-4.4471h7.0412v70.594h-214.75z"/>
 </g>
</svg>