<svg xmlns="http://www.w3.org/2000/svg" viewBox="0 0 1235 650">
    <defs>
        <path id="s" d="M247 205.2l-26.6-19.3-26.6 19.3 10.1-31.2-26.6-19.3h32.9L247 124l10.1 30.7h32.9l-26.6 19.3z"/>
        <g id="s9">
            <use href="#s"/>
            <use href="#s" y="70"/>
            <use href="#s" y="140"/>
            <use href="#s" y="210"/>
        </g>
        <g id="s18">
            <use href="#s9"/>
            <use href="#s9" x="49.4"/>
            <use href="#s" x="24.7" y="35"/>
            <use href="#s" x="24.7" y="105"/>
            <use href="#s" x="24.7" y="175"/>
            <use href="#s" x="24.7" y="245"/>
        </g>
        <clipPath id="cp">
            <use href="#s18"/>
            <use href="#s18" x="98.8"/>
            <use href="#s18" x="197.6"/>
            <use href="#s18" x="296.4"/>
            <use href="#s18" x="395.2"/>
        </clipPath>
    </defs>
    <path fill="#000" d="M0 65h1235v65H0zm0 130h1235v65H0zm0 130h1235v65H0zM494 325h741v65H494zm0 130h741v65H494zm0 130h741v65H494z"/>
    <path fill="#000" d="M0 0h494v350H0z"/>
    <path fill="#E85F0C" d="M0 0h494v350H0z" clip-path="url(#cp)"/>
</svg> 